<svg width="25" height="24" viewBox="0 0 25 24" fill="none" xmlns="http://www.w3.org/2000/svg">
<path d="M5.9375 8V13L3.9375 16V19H21.9375V16L19.9375 13V8C19.9375 7.08075 19.7564 6.1705 19.4047 5.32122C19.0529 4.47194 18.5373 3.70026 17.8872 3.05025C17.2372 2.40024 16.4656 1.88463 15.6163 1.53284C14.767 1.18106 13.8568 1 12.9375 1C12.0182 1 11.108 1.18106 10.2587 1.53284C9.40944 1.88463 8.63776 2.40024 7.98775 3.05025C7.33774 3.70026 6.82213 4.47194 6.47034 5.32122C6.11856 6.1705 5.9375 7.08075 5.9375 8ZM9.4375 19H16.4375C16.4375 19.4596 16.347 19.9148 16.1711 20.3394C15.9952 20.764 15.7374 21.1499 15.4124 21.4749C15.0874 21.7999 14.7015 22.0577 14.2769 22.2336C13.8523 22.4095 13.3971 22.5 12.9375 22.5C12.4779 22.5 12.0227 22.4095 11.5981 22.2336C11.1735 22.0577 10.7876 21.7999 10.4626 21.4749C10.1376 21.1499 9.87981 20.764 9.70392 20.3394C9.52803 19.9148 9.4375 19.4596 9.4375 19Z" stroke="black" stroke-width="2" stroke-linecap="square"/>
</svg>
