<svg width="25" height="24" viewBox="0 0 25 24" fill="none" xmlns="http://www.w3.org/2000/svg">
<path fill-rule="evenodd" clip-rule="evenodd" d="M12.9375 8.25C11.9429 8.25 10.9891 8.64509 10.2858 9.34835C9.58259 10.0516 9.1875 11.0054 9.1875 12C9.1875 12.9946 9.58259 13.9484 10.2858 14.6517C10.9891 15.3549 11.9429 15.75 12.9375 15.75C13.9321 15.75 14.8859 15.3549 15.5892 14.6517C16.2924 13.9484 16.6875 12.9946 16.6875 12C16.6875 11.0054 16.2924 10.0516 15.5892 9.34835C14.8859 8.64509 13.9321 8.25 12.9375 8.25ZM10.6875 12C10.6875 11.4033 10.9246 10.831 11.3465 10.409C11.7685 9.98705 12.3408 9.75 12.9375 9.75C13.5342 9.75 14.1065 9.98705 14.5285 10.409C14.9504 10.831 15.1875 11.4033 15.1875 12C15.1875 12.5967 14.9504 13.169 14.5285 13.591C14.1065 14.0129 13.5342 14.25 12.9375 14.25C12.3408 14.25 11.7685 14.0129 11.3465 13.591C10.9246 13.169 10.6875 12.5967 10.6875 12Z" fill="black"/>
<path fill-rule="evenodd" clip-rule="evenodd" d="M12.9113 1.25C12.4663 1.25 12.0953 1.25 11.7913 1.27C11.4805 1.28252 11.174 1.34673 10.8843 1.46C10.5505 1.59809 10.2473 1.80057 9.99179 2.05589C9.7363 2.3112 9.53361 2.61434 9.3953 2.948C9.2503 3.298 9.2113 3.668 9.1953 4.07C9.19351 4.21698 9.15451 4.36112 9.08194 4.48895C9.00937 4.61678 8.90559 4.72414 8.7803 4.801C8.65112 4.87132 8.50623 4.90775 8.35915 4.90687C8.21208 4.906 8.06763 4.86785 7.9393 4.796C7.5833 4.608 7.2433 4.457 6.8673 4.407C6.50924 4.3599 6.14542 4.38379 5.79659 4.4773C5.44777 4.57081 5.12078 4.73212 4.8343 4.952C4.59169 5.14648 4.38317 5.38001 4.2173 5.643C4.0473 5.897 3.8613 6.218 3.6393 6.603L3.6143 6.647C3.3913 7.032 3.2063 7.353 3.0723 7.627C2.9323 7.913 2.8223 8.195 2.7823 8.507C2.6869 9.22999 2.88258 9.96127 3.3263 10.54C3.5573 10.841 3.8583 11.06 4.1983 11.274C4.32493 11.3491 4.43044 11.4551 4.50495 11.582C4.57945 11.709 4.62052 11.8528 4.6243 12C4.62052 12.1472 4.57945 12.291 4.50495 12.418C4.43044 12.5449 4.32493 12.6509 4.1983 12.726C3.8583 12.94 3.5583 13.159 3.3263 13.46C3.10641 13.7465 2.94511 14.0735 2.8516 14.4223C2.75809 14.7711 2.7342 15.1349 2.7813 15.493C2.8223 15.805 2.9313 16.087 3.0713 16.373C3.2063 16.647 3.3913 16.968 3.6143 17.353L3.6393 17.397C3.8613 17.782 4.0473 18.103 4.2173 18.357C4.3943 18.62 4.5843 18.857 4.8343 19.047C5.12071 19.2671 5.44766 19.4285 5.79649 19.5222C6.14531 19.6159 6.50918 19.64 6.8673 19.593C7.2433 19.543 7.5833 19.393 7.9393 19.204C8.06751 19.1323 8.21177 19.0943 8.35865 19.0934C8.50554 19.0925 8.65025 19.1289 8.7793 19.199C8.90561 19.2749 9.0103 19.382 9.08332 19.51C9.15634 19.638 9.19525 19.7826 9.1963 19.93C9.2113 20.332 9.2503 20.702 9.3963 21.052C9.53439 21.3857 9.73687 21.689 9.99219 21.9445C10.2475 22.2 10.5506 22.4027 10.8843 22.541C11.1743 22.661 11.4743 22.708 11.7913 22.729C12.0953 22.75 12.4663 22.75 12.9113 22.75H12.9613C13.4063 22.75 13.7773 22.75 14.0813 22.73C14.3993 22.708 14.6983 22.661 14.9883 22.54C15.322 22.4019 15.6253 22.1994 15.8808 21.9441C16.1363 21.6888 16.339 21.3857 16.4773 21.052C16.6223 20.702 16.6613 20.332 16.6773 19.93C16.6789 19.7828 16.7178 19.6385 16.7904 19.5105C16.863 19.3825 16.9669 19.275 17.0923 19.198C17.2216 19.1278 17.3665 19.0916 17.5136 19.0926C17.6606 19.0937 17.8051 19.132 17.9333 19.204C18.2893 19.392 18.6293 19.543 19.0053 19.592C19.7283 19.6874 20.4596 19.4917 21.0383 19.048C21.2883 18.856 21.4783 18.62 21.6553 18.357C21.8253 18.103 22.0113 17.782 22.2333 17.397L22.2583 17.353C22.4813 16.968 22.6663 16.647 22.8003 16.373C22.9403 16.087 23.0503 15.804 23.0903 15.493C23.1857 14.77 22.99 14.0387 22.5463 13.46C22.3153 13.159 22.0143 12.94 21.6743 12.726C21.5477 12.6509 21.4422 12.5449 21.3677 12.418C21.2931 12.291 21.2521 12.1472 21.2483 12C21.2483 11.722 21.4003 11.446 21.6743 11.274C22.0143 11.06 22.3143 10.841 22.5463 10.54C22.7662 10.2535 22.9275 9.92653 23.021 9.5777C23.1145 9.22888 23.1384 8.86506 23.0913 8.507C23.0442 8.1996 22.9462 7.90219 22.8013 7.627C22.6305 7.29478 22.4494 6.96795 22.2583 6.647L22.2333 6.603C22.0506 6.27708 21.8579 5.95692 21.6553 5.643C21.4893 5.38036 21.2808 5.14718 21.0383 4.953C20.7519 4.73294 20.4249 4.57146 20.0761 4.47778C19.7273 4.38409 19.3634 4.36004 19.0053 4.407C18.6293 4.457 18.2893 4.607 17.9333 4.796C17.8051 4.86767 17.6608 4.90572 17.5139 4.9066C17.3671 4.90747 17.2224 4.87114 17.0933 4.801C16.9676 4.72438 16.8635 4.61712 16.7905 4.48928C16.7176 4.36143 16.6783 4.21717 16.6763 4.07C16.6613 3.668 16.6223 3.298 16.4763 2.948C16.3382 2.61425 16.1357 2.31097 15.8804 2.05549C15.6251 1.8 15.322 1.59731 14.9883 1.459C14.6983 1.339 14.3983 1.292 14.0813 1.271C13.7773 1.25 13.4063 1.25 12.9613 1.25H12.9113ZM11.4583 2.845C11.5353 2.813 11.6523 2.784 11.8933 2.767C12.1403 2.75 12.4603 2.75 12.9363 2.75C13.4123 2.75 13.7323 2.75 13.9793 2.767C14.2203 2.784 14.3373 2.813 14.4143 2.845C14.7213 2.972 14.9643 3.215 15.0913 3.522C15.1313 3.618 15.1643 3.769 15.1773 4.126C15.2073 4.918 15.6163 5.681 16.3423 6.1C17.0683 6.519 17.9333 6.492 18.6343 6.122C18.9503 5.955 19.0973 5.908 19.2013 5.895C19.5299 5.85158 19.8622 5.94043 20.1253 6.142C20.1913 6.193 20.2753 6.28 20.4103 6.48C20.5493 6.686 20.7093 6.963 20.9473 7.375C21.1853 7.787 21.3443 8.065 21.4533 8.287C21.5603 8.504 21.5933 8.62 21.6033 8.703C21.6467 9.03157 21.5579 9.36392 21.3563 9.627C21.2923 9.71 21.1783 9.814 20.8763 10.004C20.2043 10.426 19.7483 11.162 19.7483 12C19.7483 12.838 20.2043 13.574 20.8763 13.996C21.1783 14.186 21.2923 14.29 21.3563 14.373C21.5583 14.636 21.6463 14.968 21.6033 15.297C21.5933 15.38 21.5593 15.497 21.4533 15.713C21.3443 15.936 21.1853 16.213 20.9473 16.625C20.7093 17.037 20.5483 17.314 20.4103 17.52C20.2753 17.72 20.1913 17.807 20.1253 17.858C19.8622 18.0596 19.5299 18.1484 19.2013 18.105C19.0973 18.092 18.9513 18.045 18.6343 17.878C17.9343 17.508 17.0683 17.48 16.3423 17.899C15.6163 18.318 15.2073 19.082 15.1773 19.874C15.1643 20.231 15.1313 20.382 15.0913 20.478C15.0285 20.6298 14.9363 20.7677 14.8202 20.8839C14.704 21.0001 14.5661 21.0922 14.4143 21.155C14.3373 21.187 14.2203 21.216 13.9793 21.233C13.7323 21.25 13.4123 21.25 12.9363 21.25C12.4603 21.25 12.1403 21.25 11.8933 21.233C11.6523 21.216 11.5353 21.187 11.4583 21.155C11.3065 21.0922 11.1686 21.0001 11.0524 20.8839C10.9362 20.7677 10.8441 20.6298 10.7813 20.478C10.7413 20.382 10.7083 20.231 10.6953 19.874C10.6653 19.082 10.2563 18.319 9.5303 17.9C8.8043 17.481 7.9393 17.508 7.2383 17.878C6.9223 18.045 6.7753 18.092 6.6713 18.105C6.34273 18.1484 6.01037 18.0596 5.7473 17.858C5.6813 17.807 5.5973 17.72 5.4623 17.52C5.27418 17.2272 5.0951 16.9288 4.9253 16.625C4.6873 16.213 4.5283 15.935 4.4193 15.713C4.3123 15.496 4.2793 15.38 4.2693 15.297C4.22588 14.9684 4.31473 14.6361 4.5163 14.373C4.5803 14.29 4.6943 14.186 4.9963 13.996C5.6683 13.574 6.1243 12.838 6.1243 12C6.1243 11.162 5.6683 10.426 4.9963 10.004C4.6943 9.814 4.5803 9.71 4.5163 9.627C4.31473 9.36392 4.22588 9.03157 4.2693 8.703C4.2793 8.62 4.3133 8.503 4.4193 8.287C4.5283 8.064 4.6873 7.787 4.9253 7.375C5.1633 6.963 5.3243 6.686 5.4623 6.48C5.5973 6.28 5.6813 6.193 5.7473 6.142C6.01037 5.94043 6.34273 5.85158 6.6713 5.895C6.7753 5.908 6.9213 5.955 7.2383 6.122C7.9383 6.492 8.8043 6.52 9.5303 6.1C10.2563 5.681 10.6653 4.918 10.6953 4.126C10.7083 3.769 10.7413 3.618 10.7813 3.522C10.9083 3.215 11.1513 2.972 11.4583 2.845Z" fill="black"/>
</svg>
