<svg width="24" height="24" viewBox="0 0 24 24" fill="none" xmlns="http://www.w3.org/2000/svg">
<path d="M9 0.416625C9.14605 0.59473 9.23551 0.812433 9.25689 1.04177C9.27828 1.2711 9.2306 1.50159 9.12 1.70363C8.25231 3.29565 7.79939 5.0805 7.803 6.89363C7.803 12.9251 12.72 17.8091 18.78 17.8091C19.572 17.8081 20.3385 17.7281 21.0795 17.5691C21.3062 17.5206 21.5421 17.5397 21.7581 17.6239C21.974 17.7082 22.1605 17.8539 22.2945 18.0431C22.4362 18.24 22.5086 18.4784 22.5001 18.7208C22.4917 18.9633 22.403 19.196 22.248 19.3826C21.0715 20.8277 19.5873 21.992 17.9037 22.7908C16.2201 23.5895 14.3795 24.0025 12.516 23.9996C5.601 23.9996 0 18.4286 0 11.5646C0 6.39863 3.171 1.96763 7.686 0.0896254C7.91083 -0.00592454 8.16065 -0.0256965 8.39771 0.0332976C8.63477 0.0922917 8.84618 0.226846 9 0.416625Z" fill="black"/>
</svg>
