<svg width="24" height="24" viewBox="0 0 24 24" fill="none" xmlns="http://www.w3.org/2000/svg">
<path fill-rule="evenodd" clip-rule="evenodd" d="M12 16C13.0609 16 14.0783 15.5786 14.8284 14.8284C15.5786 14.0783 16 13.0609 16 12C16 10.9391 15.5786 9.92172 14.8284 9.17157C14.0783 8.42143 13.0609 8 12 8C10.9391 8 9.92172 8.42143 9.17157 9.17157C8.42143 9.92172 8 10.9391 8 12C8 13.0609 8.42143 14.0783 9.17157 14.8284C9.92172 15.5786 10.9391 16 12 16ZM12 18C13.5913 18 15.1174 17.3679 16.2426 16.2426C17.3679 15.1174 18 13.5913 18 12C18 10.4087 17.3679 8.88258 16.2426 7.75736C15.1174 6.63214 13.5913 6 12 6C10.4087 6 8.88258 6.63214 7.75736 7.75736C6.63214 8.88258 6 10.4087 6 12C6 13.5913 6.63214 15.1174 7.75736 16.2426C8.88258 17.3679 10.4087 18 12 18ZM11 0H13V4.062C12.336 3.97834 11.664 3.97834 11 4.062V0ZM7.094 5.68L4.222 2.808L2.808 4.222L5.68 7.094C6.09034 6.56538 6.56538 6.09034 7.094 5.68ZM4.062 11H0V13H4.062C3.97834 12.336 3.97834 11.664 4.062 11ZM5.68 16.906L2.808 19.778L4.222 21.192L7.094 18.32C6.56538 17.9097 6.09034 17.4346 5.68 16.906ZM11 19.938V24H13V19.938C12.336 20.0217 11.664 20.0217 11 19.938ZM16.906 18.32L19.778 21.192L21.192 19.778L18.32 16.906C17.9097 17.4346 17.4346 17.9097 16.906 18.32ZM19.938 13H24V11H19.938C20.0217 11.664 20.0217 12.336 19.938 13ZM18.32 7.094L21.192 4.222L19.778 2.808L16.906 5.68C17.434 6.09 17.909 6.566 18.32 7.094Z" fill="white"/>
</svg>
