<svg width="41" height="40" viewBox="0 0 41 40" fill="none" xmlns="http://www.w3.org/2000/svg">
<path d="M30.8933 18.1755C30.1265 18.1771 29.3676 18.3312 28.6609 18.6287C27.9542 18.9263 27.3137 19.3615 26.7767 19.9089C26.7612 19.3531 26.6249 18.8073 26.3774 18.3094C26.1299 17.8115 25.7771 17.3734 25.3433 17.0255C25.7914 16.672 26.1533 16.2212 26.4016 15.7072C26.6499 15.1933 26.7781 14.6296 26.7767 14.0589C26.7767 13.0495 26.3769 12.0812 25.6647 11.366C24.9525 10.6507 23.986 10.2466 22.9767 10.2422H7.37667C6.5864 10.24 5.81504 10.4838 5.1696 10.9398C4.52416 11.3958 4.03664 12.0414 3.77468 12.787C3.51272 13.5326 3.48929 14.3412 3.70767 15.1007C3.92604 15.8602 4.37537 16.5329 4.99334 17.0255C4.5461 17.3818 4.18493 17.8342 3.93669 18.3493C3.68846 18.8644 3.55955 19.4288 3.55955 20.0005C3.55955 20.5723 3.68846 21.1367 3.93669 21.6518C4.18493 22.1668 4.5461 22.6193 4.99334 22.9755C4.37511 23.4666 3.92541 24.1382 3.70688 24.8968C3.48834 25.6554 3.51185 26.4634 3.77413 27.208C4.03641 27.9527 4.5244 28.597 5.17014 29.0512C5.81587 29.5055 6.58719 29.747 7.37667 29.7422H22.9767C23.6931 29.7422 24.395 29.5405 25.0021 29.1603C25.6093 28.7801 26.0972 28.2367 26.41 27.5922C26.9455 28.2681 27.627 28.8141 28.4034 29.1893C29.1798 29.5645 30.031 29.7592 30.8933 29.7589C31.6539 29.7589 32.407 29.6091 33.1097 29.318C33.8124 29.0269 34.4509 28.6003 34.9887 28.0625C35.5265 27.5247 35.9531 26.8863 36.2441 26.1836C36.5352 25.4809 36.685 24.7278 36.685 23.9672C36.685 23.2066 36.5352 22.4535 36.2441 21.7508C35.9531 21.0481 35.5265 20.4097 34.9887 19.8719C34.4509 19.3341 33.8124 18.9075 33.1097 18.6164C32.407 18.3253 31.6539 18.1755 30.8933 18.1755ZM22.9767 28.0755H7.37667C6.81088 28.0755 6.26825 27.8508 5.86818 27.4507C5.4681 27.0506 5.24334 26.508 5.24334 25.9422C5.24334 25.3764 5.4681 24.8338 5.86818 24.4337C6.26825 24.0336 6.81088 23.8089 7.37667 23.8089H22.9767C23.5425 23.8089 24.0851 24.0336 24.4852 24.4337C24.8852 24.8338 25.11 25.3764 25.11 25.9422C25.11 26.508 24.8852 27.0506 24.4852 27.4507C24.0851 27.8508 23.5425 28.0755 22.9767 28.0755ZM22.9767 22.1422H7.37667C6.80867 22.1422 6.26393 21.9166 5.86228 21.5149C5.46064 21.1133 5.23501 20.5685 5.23501 20.0005C5.23501 19.4325 5.46064 18.8878 5.86228 18.4861C6.26393 18.0845 6.80867 17.8589 7.37667 17.8589H22.9767C23.5447 17.8589 24.0894 18.0845 24.4911 18.4861C24.8927 18.8878 25.1183 19.4325 25.1183 20.0005C25.1183 20.5685 24.8927 21.1133 24.4911 21.5149C24.0894 21.9166 23.5447 22.1422 22.9767 22.1422ZM22.9767 16.1922H7.37667C6.80867 16.1922 6.26393 15.9666 5.86228 15.5649C5.46064 15.1633 5.23501 14.6185 5.23501 14.0505C5.23501 13.4825 5.46064 12.9378 5.86228 12.5361C6.26393 12.1345 6.80867 11.9089 7.37667 11.9089H22.9767C23.5447 11.9089 24.0894 12.1345 24.4911 12.5361C24.8927 12.9378 25.1183 13.4825 25.1183 14.0505C25.1183 14.6185 24.8927 15.1633 24.4911 15.5649C24.0894 15.9666 23.5447 16.1922 22.9767 16.1922ZM30.8933 28.0922C30.0782 28.0906 29.2818 27.8474 28.6048 27.3935C27.9277 26.9396 27.4003 26.2953 27.0891 25.5419C26.7779 24.7885 26.6969 23.9598 26.8563 23.1604C27.0158 22.361 27.4085 21.6268 27.9849 21.0504C28.5613 20.474 29.2955 20.0813 30.0949 19.9219C30.8943 19.7624 31.723 19.8434 32.4764 20.1546C33.2298 20.4658 33.8741 20.9932 34.328 21.6703C34.7819 22.3474 35.025 23.1437 35.0267 23.9589C35.0273 24.5019 34.9209 25.0396 34.7134 25.5414C34.5059 26.0432 34.2015 26.4991 33.8175 26.883C33.4336 27.267 32.9776 27.5714 32.4759 27.7789C31.9741 27.9864 31.4363 28.0929 30.8933 28.0922Z" fill="black"/>
</svg>
